<svg xmlns="http://www.w3.org/2000/svg" viewBox="0 0 295.24 137.00" width="295.24" height="137.00"><title>Évellyn Brandão — CEO · BS Agro Capital</title><defs></defs><g transform="translate(107.62000000000003 6)"><polygon points="40,3 72,21.5 72,58.5 40,77 8,58.5 8,21.5" fill="none" stroke="#0a0803" stroke-width="1.8"/><polygon points="40,9.5 66,24.8 66,55.2 40,70.5 14,55.2 14,24.8" fill="none" stroke="#0a0803" stroke-width=".7" opacity=".7"/><g fill="#0a0803"><path d="M40 31.5 V13" stroke="#0a0803" stroke-width="1.3" fill="none" stroke-linecap="round"/><path d="M40 30 C34.8 29.6 32.4 26.2 32.6 22.4 C36.6 23 39.6 25.8 40 30Z"/><path d="M40 30 C45.2 29.6 47.6 26.2 47.4 22.4 C43.4 23 40.4 25.8 40 30Z"/><path d="M40 24.5 C35.6 24.1 33.6 21.2 33.8 17.9 C37.2 18.4 39.7 20.8 40 24.5Z"/><path d="M40 24.5 C44.4 24.1 46.4 21.2 46.2 17.9 C42.8 18.4 40.3 20.8 40 24.5Z"/><path d="M40 19 C36.6 18.7 35.2 16.4 35.4 13.9 C38 14.3 39.8 16.2 40 19Z"/><path d="M40 19 C43.4 18.7 44.8 16.4 44.6 13.9 C42 14.3 40.2 16.2 40 19Z"/></g><g fill="#0a0803"><path transform="translate(22.267 61.000) scale(0.02700 -0.02700)" d="M247 700V0H125V700ZM512 39 529 0H244V39ZM474 364V326H244V364ZM521 700V661H244V700ZM582 190 532 0H345L381 39Q432 39 469.0 57.5Q506 76 531.0 110.5Q556 145 572 190ZM474 328V242H464V253Q464 284 443.0 305.0Q422 326 391 326V328ZM474 448V362H391V364Q422 365 443.0 386.0Q464 407 464 438V448ZM521 664V560H511V574Q511 612 487.0 636.5Q463 661 423 662V664ZM521 718V689L399 700Q421 700 445.5 703.0Q470 706 491.0 710.0Q512 714 521 718ZM128 73V0H48V10Q48 10 54.5 10.0Q61 10 61 10Q87 10 105.5 28.5Q124 47 125 73ZM128 627H125Q124 653 105.5 671.5Q87 690 61 690Q61 690 54.5 690.0Q48 690 48 690V700H128Z"/><path transform="translate(40.318 61.000) scale(0.02700 -0.02700)" d="M157 700H307Q379 700 433.5 681.5Q488 663 518.5 625.5Q549 588 549 530Q549 486 531.5 454.0Q514 422 487.5 404.0Q461 386 430 381Q482 375 521.5 350.0Q561 325 583.5 285.0Q606 245 606 193Q606 132 573.5 88.5Q541 45 481.0 22.5Q421 0 340 0H238Q238 0 238.5 10.5Q239 21 239.0 31.5Q239 42 239 42H310Q357 42 392.0 59.5Q427 77 446.5 113.0Q466 149 466 203Q466 251 450.0 283.5Q434 316 407.5 335.0Q381 354 348.0 362.0Q315 370 281 370V379Q304 379 328.0 385.5Q352 392 372.0 407.5Q392 423 404.5 450.5Q417 478 417 520Q417 568 401.0 599.5Q385 631 355.0 646.0Q325 661 283 661H167Q167 662 164.5 671.0Q162 680 159.5 690.0Q157 700 157 700ZM247 700V0H125V700ZM128 73V0H48V10Q50 10 55.0 10.0Q60 10 61 10Q87 10 105.5 28.5Q124 47 125 73ZM128 627H125Q124 653 105.5 671.5Q87 690 61 690Q60 690 55.0 690.0Q50 690 48 690V700H128Z"/></g><path d="M22 67 H58" stroke="#0a0803" stroke-width=".9" opacity=".8"/></g><g fill="#0a0803"><path transform="translate(16.000 112.000) scale(0.02000 -0.02000)" d="M247 700V0H125V700ZM512 39 529 0H244V39ZM474 364V326H244V364ZM521 700V661H244V700ZM582 190 532 0H345L381 39Q432 39 469.0 57.5Q506 76 531.0 110.5Q556 145 572 190ZM474 328V242H464V253Q464 284 443.0 305.0Q422 326 391 326V328ZM474 448V362H391V364Q422 365 443.0 386.0Q464 407 464 438V448ZM521 664V560H511V574Q511 612 487.0 636.5Q463 661 423 662V664ZM521 718V689L399 700Q421 700 445.5 703.0Q470 706 491.0 710.0Q512 714 521 718ZM128 73V0H48V10Q48 10 54.5 10.0Q61 10 61 10Q87 10 105.5 28.5Q124 47 125 73ZM128 627H125Q124 653 105.5 671.5Q87 690 61 690Q61 690 54.5 690.0Q48 690 48 690V700H128ZM301 770Q319 797 343.0 825.0Q367 853 392.5 878.0Q418 903 439 923Q461 909 475.5 891.5Q490 874 498 851Q469 834 436.5 817.0Q404 800 371.5 786.5Q339 773 308 763Z"/><path transform="translate(32.260 112.000) scale(0.02000 -0.02000)" d="M368 -18 44 694H191L415 142ZM368 -18 362 87 620 697H689L422 104Q420 100 413.0 84.5Q406 69 398.0 49.0Q390 29 384.0 10.5Q378 -8 377 -18ZM591 628Q603 658 588.0 674.0Q573 690 553 690H544V700H754V690Q754 690 749.5 690.0Q745 690 745 690Q723 690 698.0 675.5Q673 661 657 627ZM219 628 74 627Q58 661 33.5 675.5Q9 690 -14 690Q-14 690 -18.0 690.0Q-22 690 -22 690V700H265V690H256Q237 690 222.5 674.0Q208 658 219 628Z"/><path transform="translate(50.900 112.000) scale(0.02000 -0.02000)" d="M247 700V0H125V700ZM512 39 529 0H244V39ZM474 364V326H244V364ZM521 700V661H244V700ZM582 190 532 0H345L381 39Q432 39 469.0 57.5Q506 76 531.0 110.5Q556 145 572 190ZM474 328V242H464V253Q464 284 443.0 305.0Q422 326 391 326V328ZM474 448V362H391V364Q422 365 443.0 386.0Q464 407 464 438V448ZM521 664V560H511V574Q511 612 487.0 636.5Q463 661 423 662V664ZM521 718V689L399 700Q421 700 445.5 703.0Q470 706 491.0 710.0Q512 714 521 718ZM128 73V0H48V10Q48 10 54.5 10.0Q61 10 61 10Q87 10 105.5 28.5Q124 47 125 73ZM128 627H125Q124 653 105.5 671.5Q87 690 61 690Q61 690 54.5 690.0Q48 690 48 690V700H128Z"/><path transform="translate(67.160 112.000) scale(0.02000 -0.02000)" d="M247 700V0H125V700ZM512 39 529 0H244V39ZM582 190 532 0H345L381 39Q432 39 469.0 57.5Q506 76 531.0 110.5Q556 145 572 190ZM128 73V0H48V10Q48 10 54.5 10.0Q61 10 61 10Q87 10 105.5 28.5Q124 47 125 73ZM128 627H125Q124 653 105.5 671.5Q87 690 61 690Q61 690 54.5 690.0Q48 690 48 690V700H128ZM244 627V700H324V690Q323 690 317.0 690.0Q311 690 311 690Q285 690 266.5 671.5Q248 653 247 627Z"/><path transform="translate(83.120 112.000) scale(0.02000 -0.02000)" d="M247 700V0H125V700ZM512 39 529 0H244V39ZM582 190 532 0H345L381 39Q432 39 469.0 57.5Q506 76 531.0 110.5Q556 145 572 190ZM128 73V0H48V10Q48 10 54.5 10.0Q61 10 61 10Q87 10 105.5 28.5Q124 47 125 73ZM128 627H125Q124 653 105.5 671.5Q87 690 61 690Q61 690 54.5 690.0Q48 690 48 690V700H128ZM244 627V700H324V690Q323 690 317.0 690.0Q311 690 311 690Q285 690 266.5 671.5Q248 653 247 627Z"/><path transform="translate(99.080 112.000) scale(0.02000 -0.02000)" d="M192 699 394 329 285 308 49 699ZM402 322V0H280V322ZM569 699H641L393 302L347 312ZM528 628Q536 642 532.0 656.5Q528 671 517.5 680.5Q507 690 493 690Q493 690 487.0 690.0Q481 690 481 690V700H714V690H700Q669 690 641.5 672.0Q614 654 599 631ZM231 628 90 631Q76 654 49.0 672.0Q22 690 -10 690H-24V700H279V690Q279 690 272.5 690.0Q266 690 266 690Q244 690 232.5 669.5Q221 649 231 628ZM283 73V0H203V10Q203 10 209.0 10.0Q215 10 216 10Q242 10 260.5 28.5Q279 47 280 73ZM399 73H402Q402 47 421.0 28.5Q440 10 466 10Q466 10 472.0 10.0Q478 10 478 10V0H399Z"/><path transform="translate(116.860 112.000) scale(0.02000 -0.02000)" d="M114 715 733 103 744 -14 125 597ZM118 71V0H35V10Q35 10 44.0 10.0Q53 10 54 10Q79 10 97.0 28.0Q115 46 115 71ZM226 71Q226 46 244.0 28.0Q262 10 287 10Q288 10 297.0 10.0Q306 10 306 10V0H223V71ZM114 715 225 594 226 0H115V590Q115 644 109.5 679.5Q104 715 104 715ZM742 700V114Q742 78 745.0 49.0Q748 20 750.5 3.0Q753 -14 753 -14H744L633 111V700ZM822 700V690Q822 690 813.0 690.0Q804 690 804 690Q779 690 761.0 672.5Q743 655 742 629H739V700ZM552 700H635V629H633Q632 655 614.5 672.5Q597 690 571 690Q571 690 562.0 690.0Q553 690 552 690Z"/><path transform="translate(148.400 112.000) scale(0.02000 -0.02000)" d="M157 700H307Q379 700 433.5 681.5Q488 663 518.5 625.5Q549 588 549 530Q549 486 531.5 454.0Q514 422 487.5 404.0Q461 386 430 381Q482 375 521.5 350.0Q561 325 583.5 285.0Q606 245 606 193Q606 132 573.5 88.5Q541 45 481.0 22.5Q421 0 340 0H238Q238 0 238.5 10.5Q239 21 239.0 31.5Q239 42 239 42H310Q357 42 392.0 59.5Q427 77 446.5 113.0Q466 149 466 203Q466 251 450.0 283.5Q434 316 407.5 335.0Q381 354 348.0 362.0Q315 370 281 370V379Q304 379 328.0 385.5Q352 392 372.0 407.5Q392 423 404.5 450.5Q417 478 417 520Q417 568 401.0 599.5Q385 631 355.0 646.0Q325 661 283 661H167Q167 662 164.5 671.0Q162 680 159.5 690.0Q157 700 157 700ZM247 700V0H125V700ZM128 73V0H48V10Q50 10 55.0 10.0Q60 10 61 10Q87 10 105.5 28.5Q124 47 125 73ZM128 627H125Q124 653 105.5 671.5Q87 690 61 690Q60 690 55.0 690.0Q50 690 48 690V700H128Z"/><path transform="translate(165.300 112.000) scale(0.02000 -0.02000)" d="M236 700H369Q414 700 454.5 689.0Q495 678 526.0 655.0Q557 632 574.5 596.5Q592 561 592 512Q592 468 573.0 425.0Q554 382 517.0 353.5Q480 325 426 321Q453 312 477.5 287.5Q502 263 518 239Q519 238 530.5 220.5Q542 203 559.0 178.0Q576 153 594.5 128.0Q613 103 627 86Q649 60 667.5 43.5Q686 27 707.0 18.5Q728 10 755 10V0H672Q620 0 579.5 11.0Q539 22 509.0 44.0Q479 66 457 99Q451 108 440.0 126.5Q429 145 416.0 168.0Q403 191 390.5 212.5Q378 234 369.5 251.0Q361 268 358 275Q342 304 323.0 322.0Q304 340 282 342V352Q284 352 295.0 351.5Q306 351 320 352Q347 353 374.5 362.0Q402 371 424.0 395.5Q446 420 456 464Q458 473 460.0 487.0Q462 501 461 516Q458 586 425.0 622.0Q392 658 341 660Q322 661 301.0 660.5Q280 660 264.5 660.0Q249 660 246 660Q246 661 243.5 671.0Q241 681 238.5 690.5Q236 700 236 700ZM249 700V0H127V700ZM130 73V0H50V10Q51 10 56.5 10.0Q62 10 63 10Q89 10 107.5 28.5Q126 47 127 73ZM130 627H127Q126 653 107.5 671.5Q89 690 63 690Q62 690 56.5 690.0Q51 690 50 690V700H130ZM246 73H249Q249 47 268.0 28.5Q287 10 313 10Q314 10 319.5 10.0Q325 10 325 10V0H246Z"/><path transform="translate(183.780 112.000) scale(0.02000 -0.02000)" d="M356 718 672 6H524L309 558ZM141 73Q133 53 138.0 39.0Q143 25 155.0 17.5Q167 10 179 10H188V0H-22V10Q-22 10 -17.5 10.0Q-13 10 -13 10Q10 10 34.5 24.5Q59 39 75 73ZM356 718 361 613 112 3H44L302 596Q304 600 310.5 615.5Q317 631 325.5 651.0Q334 671 340.0 689.5Q346 708 347 718ZM473 250V212H172V250ZM498 73H642Q658 39 682.5 24.5Q707 10 730 10Q730 10 734.0 10.0Q738 10 738 10V0H451V10H460Q479 10 494.0 26.5Q509 43 498 73Z"/><path transform="translate(202.080 112.000) scale(0.02000 -0.02000)" d="M114 715 733 103 744 -14 125 597ZM118 71V0H35V10Q35 10 44.0 10.0Q53 10 54 10Q79 10 97.0 28.0Q115 46 115 71ZM226 71Q226 46 244.0 28.0Q262 10 287 10Q288 10 297.0 10.0Q306 10 306 10V0H223V71ZM114 715 225 594 226 0H115V590Q115 644 109.5 679.5Q104 715 104 715ZM742 700V114Q742 78 745.0 49.0Q748 20 750.5 3.0Q753 -14 753 -14H744L633 111V700ZM822 700V690Q822 690 813.0 690.0Q804 690 804 690Q779 690 761.0 672.5Q743 655 742 629H739V700ZM552 700H635V629H633Q632 655 614.5 672.5Q597 690 571 690Q571 690 562.0 690.0Q553 690 552 690Z"/><path transform="translate(223.220 112.000) scale(0.02000 -0.02000)" d="M403 700Q517 700 601.5 657.5Q686 615 732.0 536.0Q778 457 778 350Q778 243 732.0 164.5Q686 86 601.5 43.0Q517 0 403 0H173L172 38Q191 38 219.5 38.0Q248 38 278.5 38.0Q309 38 335.5 38.0Q362 38 378.5 38.0Q395 38 395 38Q472 38 527.5 76.5Q583 115 614.0 185.0Q645 255 645 350Q645 445 614.0 515.0Q583 585 527.0 623.5Q471 662 395 662Q395 662 377.5 662.0Q360 662 332.5 662.0Q305 662 273.0 662.0Q241 662 211.5 662.0Q182 662 162 662V700ZM247 700V0H125V700ZM128 73V0H48V10Q48 10 54.5 10.0Q61 10 61 10Q87 10 105.5 28.5Q124 47 125 73ZM128 627H125Q125 653 106.0 671.5Q87 690 61 690Q61 690 55.0 690.0Q49 690 49 690L48 700H128Z"/><path transform="translate(243.640 112.000) scale(0.02000 -0.02000)" d="M356 718 672 6H524L309 558ZM141 73Q133 53 138.0 39.0Q143 25 155.0 17.5Q167 10 179 10H188V0H-22V10Q-22 10 -17.5 10.0Q-13 10 -13 10Q10 10 34.5 24.5Q59 39 75 73ZM356 718 361 613 112 3H44L302 596Q304 600 310.5 615.5Q317 631 325.5 651.0Q334 671 340.0 689.5Q346 708 347 718ZM473 250V212H172V250ZM498 73H642Q658 39 682.5 24.5Q707 10 730 10Q730 10 734.0 10.0Q738 10 738 10V0H451V10H460Q479 10 494.0 26.5Q509 43 498 73ZM214 767H225Q231 780 240.5 790.5Q250 801 264.0 807.5Q278 814 294 812Q318 810 339.5 798.0Q361 786 384.0 775.0Q407 764 432 764Q455 764 472.0 774.0Q489 784 500.0 800.5Q511 817 515.5 836.5Q520 856 518 874H507Q503 864 493.0 854.5Q483 845 469.0 840.0Q455 835 437 836Q413 838 391.0 850.0Q369 862 347.0 872.5Q325 883 300 883Q278 883 261.5 872.5Q245 862 234.5 845.0Q224 828 219.0 807.5Q214 787 214 767Z"/><path transform="translate(261.940 112.000) scale(0.02000 -0.02000)" d="M438 714Q553 714 639.5 669.5Q726 625 773.0 543.0Q820 461 820 350Q820 239 773.0 157.0Q726 75 639.5 30.5Q553 -14 438 -14Q322 -14 236.0 30.5Q150 75 103.0 157.0Q56 239 56 350Q56 461 103.0 543.0Q150 625 236.0 669.5Q322 714 438 714ZM438 24Q513 24 568.5 64.0Q624 104 654.5 177.0Q685 250 685 350Q685 450 654.5 523.0Q624 596 568.5 636.0Q513 676 438 676Q363 676 307.5 636.0Q252 596 221.5 523.0Q191 450 191 350Q191 250 221.5 177.0Q252 104 307.5 64.0Q363 24 438 24Z"/></g><g fill="#3a3222"><path transform="translate(85.513 127.000) scale(0.00680 -0.00680)" d="M418 -8Q338 -8 270.5 18.5Q203 45 153.5 93.5Q104 142 76.0 207.0Q48 272 48 350Q48 428 76.0 493.0Q104 558 154.0 606.5Q204 655 271.5 681.5Q339 708 419 708Q500 708 568.5 680.5Q637 653 685 599L620 536Q580 578 530.0 598.5Q480 619 423 619Q364 619 313.5 599.0Q263 579 226.0 543.0Q189 507 168.5 457.5Q148 408 148 350Q148 292 168.5 242.5Q189 193 226.0 157.0Q263 121 313.5 101.0Q364 81 423 81Q480 81 530.0 101.5Q580 122 620 165L685 102Q637 48 568.5 20.0Q500 -8 418 -8Z"/><path transform="translate(92.402 127.000) scale(0.00680 -0.00680)" d="M105 0V700H599V613H205V87H613V0ZM196 313V398H556V313Z"/><path transform="translate(98.998 127.000) scale(0.00680 -0.00680)" d="M421 -8Q341 -8 272.5 19.0Q204 46 154.0 94.5Q104 143 76.0 208.0Q48 273 48 350Q48 427 76.0 492.0Q104 557 154.0 605.5Q204 654 272.0 681.0Q340 708 421 708Q501 708 568.5 681.5Q636 655 686.5 606.5Q737 558 764.5 493.0Q792 428 792 350Q792 272 764.5 207.0Q737 142 686.5 93.5Q636 45 568.5 18.5Q501 -8 421 -8ZM421 81Q479 81 528.5 101.0Q578 121 614.5 157.5Q651 194 671.5 243.0Q692 292 692 350Q692 408 671.5 457.0Q651 506 614.5 542.5Q578 579 528.5 599.0Q479 619 421 619Q362 619 312.5 599.0Q263 579 226.0 542.5Q189 506 168.5 457.0Q148 408 148 350Q148 292 168.5 243.0Q189 194 226.0 157.5Q263 121 312.5 101.0Q362 81 421 81Z"/></g><circle cx="110.71" cy="124.80" r="1.00" fill="#3a3222"/><g fill="#3a3222"><path transform="translate(116.710 127.000) scale(0.00680 -0.00680)" d="M105 0V700H419Q540 700 605.0 651.5Q670 603 670 519Q670 462 644.5 423.0Q619 384 576.0 363.0Q533 342 483 342L501 372Q561 372 607.0 351.0Q653 330 680.0 289.5Q707 249 707 189Q707 99 639.5 49.5Q572 0 439 0ZM205 81H435Q518 81 562.0 109.0Q606 137 606 197Q606 258 562.0 286.0Q518 314 435 314H196V395H410Q486 395 528.0 423.0Q570 451 570 507Q570 563 528.0 591.0Q486 619 410 619H205Z"/><path transform="translate(123.897 127.000) scale(0.00680 -0.00680)" d="M309 -8Q229 -8 156.0 16.5Q83 41 41 80L78 158Q118 123 180.0 100.0Q242 77 309 77Q370 77 408.0 91.0Q446 105 464.0 129.5Q482 154 482 185Q482 221 458.5 243.0Q435 265 397.5 278.5Q360 292 315.0 302.0Q270 312 224.5 325.5Q179 339 141.5 360.0Q104 381 81.0 416.5Q58 452 58 508Q58 562 86.5 607.5Q115 653 174.5 680.5Q234 708 326 708Q387 708 447.0 692.0Q507 676 551 646L518 566Q473 596 423.0 609.5Q373 623 326 623Q267 623 229.0 608.0Q191 593 173.5 568.0Q156 543 156 512Q156 475 179.5 453.0Q203 431 240.5 418.0Q278 405 323.0 394.5Q368 384 413.5 371.0Q459 358 496.5 337.0Q534 316 557.0 281.0Q580 246 580 191Q580 138 551.0 92.5Q522 47 461.5 19.5Q401 -8 309 -8Z"/><path transform="translate(134.376 127.000) scale(0.00680 -0.00680)" d="M-1 0 316 700H415L733 0H628L345 644H385L102 0ZM134 175 161 255H555L584 175Z"/><path transform="translate(141.394 127.000) scale(0.00680 -0.00680)" d="M421 -8Q340 -8 272.0 18.5Q204 45 154.0 93.5Q104 142 76.0 207.0Q48 272 48 350Q48 428 76.0 493.0Q104 558 154.5 606.5Q205 655 273.0 681.5Q341 708 423 708Q506 708 575.0 681.0Q644 654 692 600L630 538Q587 580 536.5 599.5Q486 619 427 619Q367 619 315.5 599.0Q264 579 226.5 543.0Q189 507 168.5 457.5Q148 408 148 350Q148 293 168.5 243.5Q189 194 226.5 157.5Q264 121 315.0 101.0Q366 81 426 81Q482 81 533.5 98.5Q585 116 629 157L686 81Q634 37 564.5 14.5Q495 -8 421 -8ZM686 81 590 94V354H686Z"/><path transform="translate(148.683 127.000) scale(0.00680 -0.00680)" d="M105 0V700H378Q514 700 592.0 635.5Q670 571 670 456Q670 380 635.0 325.5Q600 271 535.0 242.0Q470 213 378 213H160L205 259V0ZM573 0 395 254H502L682 0ZM205 249 160 298H375Q471 298 520.5 339.5Q570 381 570 456Q570 531 520.5 572.0Q471 613 375 613H160L205 663Z"/><path transform="translate(155.667 127.000) scale(0.00680 -0.00680)" d="M421 -8Q341 -8 272.5 19.0Q204 46 154.0 94.5Q104 143 76.0 208.0Q48 273 48 350Q48 427 76.0 492.0Q104 557 154.0 605.5Q204 654 272.0 681.0Q340 708 421 708Q501 708 568.5 681.5Q636 655 686.5 606.5Q737 558 764.5 493.0Q792 428 792 350Q792 272 764.5 207.0Q737 142 686.5 93.5Q636 45 568.5 18.5Q501 -8 421 -8ZM421 81Q479 81 528.5 101.0Q578 121 614.5 157.5Q651 194 671.5 243.0Q692 292 692 350Q692 408 671.5 457.0Q651 506 614.5 542.5Q578 579 528.5 599.0Q479 619 421 619Q362 619 312.5 599.0Q263 579 226.0 542.5Q189 506 168.5 457.0Q148 408 148 350Q148 292 168.5 243.0Q189 194 226.0 157.5Q263 121 312.5 101.0Q362 81 421 81Z"/><path transform="translate(167.635 127.000) scale(0.00680 -0.00680)" d="M418 -8Q338 -8 270.5 18.5Q203 45 153.5 93.5Q104 142 76.0 207.0Q48 272 48 350Q48 428 76.0 493.0Q104 558 154.0 606.5Q204 655 271.5 681.5Q339 708 419 708Q500 708 568.5 680.5Q637 653 685 599L620 536Q580 578 530.0 598.5Q480 619 423 619Q364 619 313.5 599.0Q263 579 226.0 543.0Q189 507 168.5 457.5Q148 408 148 350Q148 292 168.5 242.5Q189 193 226.0 157.0Q263 121 313.5 101.0Q364 81 423 81Q480 81 530.0 101.5Q580 122 620 165L685 102Q637 48 568.5 20.0Q500 -8 418 -8Z"/><path transform="translate(174.523 127.000) scale(0.00680 -0.00680)" d="M-1 0 316 700H415L733 0H628L345 644H385L102 0ZM134 175 161 255H555L584 175Z"/><path transform="translate(181.541 127.000) scale(0.00680 -0.00680)" d="M105 0V700H378Q470 700 535.0 671.0Q600 642 635.0 587.0Q670 532 670 456Q670 380 635.0 325.5Q600 271 535.0 241.5Q470 212 378 212H160L205 259V0ZM205 249 160 299H375Q471 299 520.5 340.0Q570 381 570 456Q570 531 520.5 572.0Q471 613 375 613H160L205 663Z"/><path transform="translate(188.490 127.000) scale(0.00680 -0.00680)" d="M105 0V700H205V0Z"/><path transform="translate(192.638 127.000) scale(0.00680 -0.00680)" d="M244 0V613H4V700H583V613H343V0Z"/><path transform="translate(198.670 127.000) scale(0.00680 -0.00680)" d="M-1 0 316 700H415L733 0H628L345 644H385L102 0ZM134 175 161 255H555L584 175Z"/><path transform="translate(205.688 127.000) scale(0.00680 -0.00680)" d="M105 0V700H205V87H584V0Z"/></g></svg>